PSF_ID_stride5.mot
nRows=8
nColumns=38

name PSF_ID_stride5.mot
datacolumns 38
datarows 8
range 2.5500000000 2.5850000000
endheader
time	pelvis_tilt_moment	pelvis_list_moment	pelvis_rotation_moment	pelvis_tx_force	pelvis_ty_force	pelvis_tz_force	hip_flexion_r_moment	hip_adduction_r_moment	hip_rotation_r_moment	knee_angle_r_moment	ankle_angle_r_moment	subtalar_angle_r_moment	mtp_angle_r_moment	hip_flexion_l_moment	hip_adduction_l_moment	hip_rotation_l_moment	knee_angle_l_moment	ankle_angle_l_moment	subtalar_angle_l_moment	mtp_angle_l_moment	lumbar_extension_moment	lumbar_bending_moment	lumbar_rotation_moment	arm_flex_r_moment	arm_add_r_moment	arm_rot_r_moment	elbow_flex_r_moment	pro_sup_r_moment	wrist_flex_r_moment	wrist_dev_r_moment	arm_flex_l_moment	arm_add_l_moment	arm_rot_l_moment	elbow_flex_l_moment	pro_sup_l_moment	wrist_flex_l_moment	wrist_dev_l_moment
        2.5500000000	      -59.3019811682	       39.3366703161	       13.4343802621	       20.4655516518	      320.7348738252	      136.2972518954	       69.0299609307	        3.7041000070	        0.7316695381	       22.3721359664	        4.7761263976	       -0.7574600708	        0.2376279680	      -30.4590887583	      -18.0835986523	        0.4748883412	       -9.3223445643	       21.1845822039	       -5.5032849589	        0.1108604718	       12.3228147992	       33.2859303429	       -1.5192274738	       -5.8194032029	       -0.6110728663	        0.2843973783	       -0.2971547466	        0.0005556452	        0.0247642965	        0.0687079269	       -5.4141773874	        1.0530416571	        1.1675479058	        0.0733558382	        0.0344738156	        0.1171539287	        0.0641528285	
        2.5550000000	      -59.9522460618	       80.4771938281	       20.6676124216	       12.4099609982	      337.4452783710	       82.6170129904	       71.6620079762	        5.5954392754	       -0.2492616048	       22.5225144746	        4.8368950477	       -0.6664367982	        0.2447455693	      -13.7551470023	      -32.9400188891	       -0.6450847403	        8.1337176603	       24.3081981961	       -4.4563662707	        0.1988241989	       26.9022146136	       31.8694280189	        3.4078946494	       -5.3339522569	        0.0534129778	        0.8686139808	        0.5783028381	        0.0038665545	        0.1059479928	        0.0089744984	       -6.1876913150	        0.7578484178	        0.8156705447	        0.7601325101	        0.0063206107	        0.0902979568	       -0.0067527961	
        2.5600000000	      -55.6280301991	       87.1113898630	       30.0730923068	        3.6209162487	      305.8340523174	        8.2633285486	       76.3572617260	        7.9403486386	       -1.1281970373	       22.7102052407	        4.8907729599	       -0.5891112416	        0.2501460646	      -17.7545076477	      -42.4001935217	       -4.7867154408	       14.0948275574	       22.5854315747	       -3.6913798118	        0.2730485001	       34.4994757726	       28.9472492994	        7.4450696717	       -4.3516786545	        0.5792741892	        1.2493969925	        1.4254395415	        0.0032093494	        0.1658811241	       -0.0560292520	       -6.1285765957	        0.5750818892	        0.4769266481	        1.4227959542	       -0.0204673952	        0.0642406516	       -0.0785358633	
        2.5650000000	      -37.2751653116	       82.7480172260	       41.3661251922	       -3.4719531181	      172.4076521001	      -74.3056497242	       82.4655741288	       10.2182241123	       -1.6969960378	       23.0478897785	        4.9086362202	       -0.5335568926	        0.2519263063	      -44.5059572640	      -44.9269870092	      -15.3608031811	       14.6212764859	       13.2641296639	       -3.6602301395	        0.3257535429	       35.8648022539	       23.7334703928	       10.1948164452	       -2.7965089302	        0.9618768397	        1.4189749529	        2.0878903943	       -0.0006564860	        0.1993045569	       -0.1126042690	       -5.3325680196	        0.4403493433	        0.1590584150	        1.9248486192	       -0.0426244066	        0.0384698576	       -0.1378936163	
        2.5700000000	      -10.3215875653	       50.7855506794	       52.4978410976	       -7.5430461563	       -4.6869981302	     -136.8106525445	       87.1055080618	       11.9618136324	       -1.8985500840	       23.7106400741	        4.8829112291	       -0.5008623534	        0.2508241362	      -84.1112532810	      -41.4307335086	      -29.8388021494	       10.6044741515	       -1.5165383578	       -5.2669304337	        0.3498104981	       30.8624294014	       16.8926066168	       11.3914323267	       -1.1605782864	        1.2237135184	        1.4549509358	        2.4875101951	       -0.0049604218	        0.2102335874	       -0.1515998417	       -3.9982350754	        0.3021663656	       -0.1175605962	        2.2078005363	       -0.0578749738	        0.0147333023	       -0.1767588971	
        2.5750000000	       18.9559608158	        9.7504520078	       61.4452966352	       -9.5395901290	     -182.6430688024	     -163.1037395687	       89.0950938446	       13.1518782222	       -1.7808769008	       24.6631367138	        4.7907336572	       -0.4852536414	        0.2455539557	     -126.3901028052	      -32.9623045050	      -44.6218603351	        7.1402932854	      -18.7323897189	       -8.1460883395	        0.3488116821	       23.0894043342	        9.7114141965	       11.1494736546	        0.2512903412	        1.3891679134	        1.3526991759	        2.6757863772	       -0.0097911157	        0.2016753479	       -0.1754780444	       -2.5431031980	        0.1645085942	       -0.3162156883	        2.3291767423	       -0.0663267901	       -0.0016196564	       -0.1982179591	
        2.5800000000	       43.0617665017	      -28.5993170457	       65.2820451892	      -12.7861209755	     -320.7165936004	     -143.8510815302	       87.6529388330	       14.1407510757	       -1.6069882985	       25.7381791374	        4.6611746532	       -0.4717818229	        0.2389868792	     -161.2890428328	      -25.2533264560	      -54.7650139258	        9.9816296357	      -35.3715329776	      -10.8977911309	        0.3239670764	       18.7094277751	        3.9563155799	        9.4210271279	        1.2226214692	        1.4387398669	        1.1642208832	        2.8395514298	       -0.0182805303	        0.1818171183	       -0.1998938325	       -1.2168863395	        0.1680989080	       -0.3300614035	        2.4869785773	       -0.0694353294	        0.0031904342	       -0.2174296196	
        2.5850000000	       44.8696116254	      -38.9193562466	       63.1159084556	      -19.6576973195	     -346.7455522348	      -99.6163118933	       84.3986957634	       15.4375322269	       -1.7383768030	       26.7182143526	        4.5277440405	       -0.4440182187	        0.2342970391	     -171.2678392792	      -25.4773739523	      -53.6142398524	       20.9559579879	      -48.9955472229	      -10.6364019729	        0.2827435028	       21.7869907521	        3.8838381513	        6.3180888326	        1.5823633805	        1.3661273640	        0.8768983221	        3.1882131855	       -0.0344691099	        0.1555456817	       -0.2439216139	       -0.1030226256	        0.3603038248	       -0.1901665135	        2.8766215350	       -0.0695813374	        0.0302928599	       -0.2528421788	
